<!DOCTYPE svg PUBLIC "-//W3C//DTD SVG 1.1//EN" "http://www.w3.org/Graphics/SVG/1.1/DTD/svg11.dtd">
<!-- Uploaded to: SVG Repo, www.svgrepo.com, Transformed by: SVG Repo Mixer Tools -->
<svg fill="#f5c211" version="1.1" id="Capa_1" xmlns="http://www.w3.org/2000/svg" xmlns:xlink="http://www.w3.org/1999/xlink" width="800px" height="800px" viewBox="0 0 142.304 142.304" xml:space="preserve">
<g id="SVGRepo_bgCarrier" stroke-width="0"/>
<g id="SVGRepo_tracerCarrier" stroke-linecap="round" stroke-linejoin="round"/>
<g id="SVGRepo_iconCarrier"> <g> <path d="M140.669,72.75c-1.788-1.329-4.33-0.96-5.664,0.833l-7.277,9.788c-1.213-28.189-23.029-51.129-50.76-53.958 c2.03-1.685,3.359-4.19,3.359-7.038c0-5.052-4.121-9.163-9.17-9.163c-5.055,0-9.168,4.116-9.168,9.163 c0,2.842,1.327,5.347,3.357,7.038c-27.538,2.813-49.23,25.438-50.739,53.335l-7.425-9.06c-1.414-1.729-3.968-1.982-5.695-0.559 c-1.735,1.402-1.988,3.96-0.567,5.685l11.156,13.621c-2.642,0.354-4.714,2.526-4.714,5.269c0,2.984,2.418,5.399,5.4,5.399h1.696 v15.188h-1.685c-2.979,0-5.4,2.416-5.4,5.4c0,2.995,2.42,5.4,5.4,5.4h116.775c2.984,0,5.4-2.405,5.4-5.4c0-2.984-2.416-5.4-5.4-5.4 h-1.688v-15.188h1.688c2.984,0,5.4-2.415,5.4-5.399c0-2.479-1.698-4.472-3.972-5.104l10.531-14.176 C142.836,76.625,142.467,74.089,140.669,72.75z M113.342,86.882c0-2.083,1.688-3.766,3.771-3.766c2.077,0,3.765,1.683,3.765,3.766 c0,2.078-1.688,3.76-3.765,3.76C115.029,90.642,113.342,88.96,113.342,86.882z M121.969,79.141 c-1.418-0.886-3.069-1.424-4.852-1.424c-5.057,0-9.17,4.113-9.17,9.165c0,2.035,0.69,3.902,1.813,5.421H78.128 c1.351-1.593,2.199-3.628,2.199-5.885c0-4.113-2.745-7.552-6.471-8.712V34.652C98.645,35.946,118.789,54.873,121.969,79.141z M71.157,82.653c2.081,0,3.771,1.683,3.771,3.766c0,2.077-1.69,3.76-3.771,3.76c-2.078,0-3.768-1.683-3.768-3.76 C67.389,84.335,69.079,82.653,71.157,82.653z M71.157,18.618c2.081,0,3.771,1.685,3.771,3.763c0,2.08-1.69,3.765-3.771,3.765 c-2.078,0-3.768-1.685-3.768-3.765C67.389,20.302,69.079,18.618,71.157,18.618z M68.457,34.652v43.055 c-3.731,1.16-6.468,4.609-6.468,8.712c0,2.257,0.846,4.292,2.197,5.885H32.547c1.123-1.519,1.814-3.386,1.814-5.421 c0-5.062-4.116-9.165-9.17-9.165c-1.785,0-3.438,0.538-4.854,1.424C23.519,54.873,43.666,35.946,68.457,34.652z M25.199,90.642 c-2.081,0-3.771-1.682-3.771-3.76c0-2.083,1.69-3.766,3.771-3.766c2.078,0,3.768,1.683,3.768,3.766 C28.967,88.96,27.276,90.642,25.199,90.642z M122.454,118.291H19.856v-15.188h102.598V118.291z"/> </g> </g>
</svg>